HIERARCHY
ROOT pelvis
{
	OFFSET 0.000000 0.747927 -0.000000
	CHANNELS 6 Xposition Yposition Zposition Xrotation Yrotation Zrotation
	JOINT spine
	{
		OFFSET 0.000000 0.000000 0.000000
		CHANNELS 6 Xposition Yposition Zposition Xrotation Yrotation Zrotation
		JOINT spine.001
		{
			OFFSET 0.000000 0.242384 0.012703
			CHANNELS 3 Xrotation Yrotation Zrotation
			JOINT neck
			{
				OFFSET 0.000000 0.240908 -0.029580
				CHANNELS 6 Xposition Yposition Zposition Xrotation Yrotation Zrotation
				JOINT face
				{
					OFFSET 0.000000 0.205291 -0.003583
					CHANNELS 6 Xposition Yposition Zposition Xrotation Yrotation Zrotation
					End Site
					{
						OFFSET 0.000000 -0.007370 0.039307
					}
				}
			}
			JOINT shoulder.L
			{
				OFFSET 0.000000 0.240908 -0.029580
				CHANNELS 6 Xposition Yposition Zposition Yrotation Xrotation Zrotation
				JOINT upper_arm.L
				{
					OFFSET 0.166616 0.000000 0.000000
					CHANNELS 6 Xposition Yposition Zposition Xrotation Yrotation Zrotation
					JOINT forearm.L
					{
						OFFSET 0.270299 0.000934 -0.000113
						CHANNELS 6 Xposition Yposition Zposition Xrotation Yrotation Zrotation
						End Site
						{
							OFFSET 0.221017 -0.001285 0.003755
						}
					}
				}
			}
			JOINT shoulder.R
			{
				OFFSET 0.000000 0.240908 -0.029580
				CHANNELS 6 Xposition Yposition Zposition Yrotation Xrotation Zrotation
				JOINT upper_arm.R
				{
					OFFSET -0.166616 0.000000 0.000000
					CHANNELS 6 Xposition Yposition Zposition Xrotation Yrotation Zrotation
					JOINT forearm.R
					{
						OFFSET -0.270059 0.000934 -0.000113
						CHANNELS 6 Xposition Yposition Zposition Xrotation Yrotation Zrotation
						End Site
						{
							OFFSET -0.227122 -0.001286 0.003861
						}
					}
				}
			}
		}
	}
	JOINT pelvis.L
	{
		OFFSET 0.000000 0.000000 0.000000
		CHANNELS 6 Xposition Yposition Zposition Yrotation Xrotation Zrotation
		End Site
		{
			OFFSET 0.100005 0.000000 0.000000
		}
	}
	JOINT pelvis.R
	{
		OFFSET 0.000000 0.000000 0.000000
		CHANNELS 6 Xposition Yposition Zposition Yrotation Xrotation Zrotation
		End Site
		{
			OFFSET -0.100005 0.000000 0.000000
		}
	}
	JOINT thigh.L
	{
		OFFSET 0.100005 0.000000 0.000000
		CHANNELS 6 Xposition Yposition Zposition Xrotation Yrotation Zrotation
		JOINT shin.L
		{
			OFFSET 0.019004 -0.362610 0.000000
			CHANNELS 6 Xposition Yposition Zposition Xrotation Yrotation Zrotation
			JOINT foot.L
			{
				OFFSET 0.016952 -0.323469 0.000000
				CHANNELS 6 Xposition Yposition Zposition Xrotation Yrotation Zrotation
				End Site
				{
					OFFSET 0.015017 -0.064296 0.153116
				}
			}
		}
	}
	JOINT thigh.R
	{
		OFFSET -0.100005 0.000000 0.000000
		CHANNELS 6 Xposition Yposition Zposition Xrotation Yrotation Zrotation
		JOINT shin.R
		{
			OFFSET -0.018104 -0.345446 0.000000
			CHANNELS 6 Xposition Yposition Zposition Xrotation Yrotation Zrotation
			JOINT foot.R
			{
				OFFSET -0.017207 -0.328329 0.000000
				CHANNELS 6 Xposition Yposition Zposition Xrotation Yrotation Zrotation
				End Site
				{
					OFFSET -0.015899 -0.068073 0.162110
				}
			}
		}
	}
}
MOTION
Frames: 4
Frame Time: 0.041667
-0.016408 -0.014918 0.011867 0.000001 -9.906416 0.000005 0.000000 -0.000000 0.000000 -9.733180 -0.064269 0.465158 10.004811 2.111964 -0.259437 -0.000000 0.240908 -0.029580 10.836884 2.769911 -1.064231 -0.000000 0.205291 -0.003583 0.228259 0.000001 -0.000000 0.000000 0.240908 -0.029580 -0.132573 -0.001249 -1.079758 0.166616 0.000000 0.000000 -3.317632 -4.048651 -78.396829 0.270299 0.000934 -0.000113 -1.318788 -17.518252 -8.824497 -0.000000 0.240908 -0.029580 -0.138709 -0.001368 -1.129647 -0.166616 0.000000 0.000000 -4.107282 4.916012 79.599264 -0.270059 0.000934 -0.000113 -1.244581 12.166339 13.032900 0.000000 0.000000 -0.000000 -0.000078 0.000001 1.381881 0.000000 0.000000 -0.000000 -0.000001 0.000000 1.381882 0.099976 0.002412 -0.000000 7.759582 0.291428 -1.704809 0.019004 -0.362610 0.000000 -1.457673 -0.098271 1.713432 0.016952 -0.323469 0.000000 -4.471636 6.471018 3.448269 -0.099976 -0.002412 0.000000 6.403576 -0.099291 4.225152 -0.018104 -0.345446 0.000000 -4.121600 0.310694 -2.618204 -0.017207 -0.328329 0.000000 -3.305175 -1.551144 -1.031505 
-0.015178 -0.013857 0.012856 0.000001 -10.111586 0.000005 0.000000 -0.000000 0.000000 -9.875101 -0.096218 0.690066 10.005209 2.204136 -0.270761 0.000000 0.240908 -0.029580 11.001923 4.151679 -1.240317 -0.000000 0.205291 -0.003583 0.320310 0.000001 0.000000 0.000000 0.240908 -0.029580 -0.169314 -0.002037 -1.378994 0.166616 0.000000 -0.000000 -3.346787 -4.076259 -78.510907 0.270299 0.000934 -0.000113 -1.285334 -17.657581 -8.499610 -0.000000 0.240908 -0.029580 -0.175438 -0.002188 -1.428801 -0.166616 0.000000 0.000000 -4.340842 5.132280 80.311973 -0.270059 0.000934 -0.000113 -1.121117 11.551189 12.463681 -0.000000 -0.000000 0.000000 0.000026 -0.000001 1.731358 0.000000 0.000000 0.000000 -0.000002 0.000000 1.731324 0.099959 0.003021 0.000000 8.217660 0.268001 -2.270538 0.019004 -0.362610 0.000000 -2.155527 -0.157953 2.381269 0.016952 -0.323469 0.000000 -5.214902 6.916413 3.783580 -0.099959 -0.003021 0.000000 6.288911 -0.090659 4.349892 -0.018104 -0.345446 0.000000 -3.455399 0.269427 -2.914513 -0.017207 -0.328329 0.000000 -4.612879 -1.350500 -1.091336 
-0.014324 -0.013217 0.013399 0.000001 -10.222032 0.000005 0.000000 -0.000000 0.000000 -9.957326 -0.117555 0.838715 10.005374 2.226519 -0.273524 -0.000000 0.240908 -0.029580 11.118742 5.205113 -1.368800 0.000000 0.205291 -0.003583 0.413291 0.000000 -0.000000 -0.000000 0.240908 -0.029580 -0.192773 -0.002643 -1.570256 0.166616 -0.000000 -0.000000 -3.374638 -4.101004 -78.639923 0.270299 0.000934 -0.000113 -1.252737 -17.717845 -8.231367 0.000000 0.240908 -0.029580 -0.198879 -0.002812 -1.620104 -0.166616 -0.000000 -0.000000 -4.494588 5.270720 80.788024 -0.270059 0.000934 -0.000113 -1.053015 11.192730 12.142750 -0.000000 -0.000000 0.000000 0.000015 -0.000001 1.945925 -0.000000 -0.000000 0.000000 0.000003 -0.000000 1.945893 0.099947 0.003396 0.000000 8.495693 0.248034 -2.661566 0.019004 -0.362610 0.000000 -2.544620 -0.195459 2.783427 0.016952 -0.323469 0.000000 -6.155042 7.301652 4.133289 -0.099947 -0.003396 -0.000000 6.209354 -0.084552 4.441117 -0.018104 -0.345446 0.000000 -2.996194 0.239587 -3.141631 -0.017207 -0.328329 0.000000 -5.618384 -1.178477 -1.126234 
-0.013896 -0.013008 0.013493 0.000001 -10.233567 0.000005 -0.000000 -0.000000 0.000000 -9.975183 -0.126194 0.899331 10.005147 2.196927 -0.269891 -0.000000 0.240908 -0.029580 11.159908 5.836706 -1.426941 0.000000 0.205291 -0.003583 0.491086 0.000000 -0.000000 -0.000000 0.240908 -0.029580 -0.201256 -0.002873 -1.639475 0.166616 0.000000 -0.000000 -3.396235 -4.116586 -78.787366 0.270299 0.000934 -0.000113 -1.223666 -17.710875 -8.027673 0.000000 0.240908 -0.029580 -0.207387 -0.003051 -1.689364 -0.166617 -0.000000 0.000000 -4.555291 5.321062 81.014438 -0.270059 0.000934 -0.000113 -1.033673 11.095303 12.040809 0.000000 0.000000 -0.000000 -0.000055 0.000001 2.022534 0.000000 0.000000 -0.000000 -0.000002 0.000000 2.022535 0.099943 0.003529 0.000000 8.595253 0.236062 -2.859496 0.019004 -0.362610 0.000000 -2.631732 -0.205150 2.913205 0.016952 -0.323469 0.000000 -7.132824 7.583392 4.448176 -0.099943 -0.003529 0.000000 6.167254 -0.080845 4.499226 -0.018104 -0.345446 0.000000 -2.761141 0.224460 -3.293541 -0.017207 -0.328329 0.000000 -6.258484 -1.053650 -1.139574 
